<svg width="554" height="123" viewBox="0 0 554 123" fill="none" xmlns="http://www.w3.org/2000/svg">
<path fill-rule="evenodd" clip-rule="evenodd" d="M83.7595 45.6334C83.9055 56.1914 84.0525 67.2063 84.2155 78.2203C84.2265 78.9813 84.2945 79.7494 84.4295 80.4974C84.8575 82.8564 86.1645 83.9773 88.5815 84.0353C90.4495 84.0793 92.3195 84.0454 94.1885 84.0554C95.3715 84.0614 95.5625 84.2574 95.5695 85.4464C95.5735 86.1544 95.5805 86.8634 95.5665 87.5714C95.5465 88.6054 95.3255 88.8373 94.3095 88.8113C92.5255 88.7683 90.7435 88.6374 88.9605 88.6444C79.9005 88.6824 70.8405 88.7514 61.7805 88.8134C60.2345 88.8244 60.2025 88.8014 60.2005 87.2744C60.2005 86.6514 60.1965 86.0284 60.2015 85.4054C60.2105 84.2494 60.3925 84.0574 61.5255 84.0554C63.9325 84.0494 66.3395 84.0594 68.7475 84.0514C70.7575 84.0434 71.5135 83.4493 71.9245 81.4923C72.0745 80.7753 72.1695 80.0354 72.1785 79.3044C72.3145 68.6014 72.4355 57.8964 72.5515 47.1934C72.5675 45.7864 72.3105 45.5323 70.8845 45.4493C70.3474 45.4205 69.8095 45.4072 69.2715 45.4094C54.7995 45.4074 40.3285 45.4074 25.8565 45.4074C23.5135 45.4074 23.3865 45.5224 23.4005 47.8214C23.4665 58.3554 23.5395 68.8904 23.6185 79.4254C23.6225 79.9614 23.6755 80.5014 23.7665 81.0294C24.0915 82.9154 25.2795 83.9814 27.2025 84.0294C29.1835 84.0804 31.1665 84.0484 33.1495 84.0544C34.3635 84.0594 34.4995 84.2004 34.5035 85.4374C34.5055 86.2024 34.4775 86.9674 34.5105 87.7314C34.5455 88.5514 34.1545 88.8504 33.3785 88.8214C31.3975 88.7464 29.4165 88.6314 27.4355 88.6354C19.5085 88.6584 11.5815 88.7214 3.65352 88.7714C2.94552 88.7764 2.23752 88.8054 1.52952 88.8134C0.412521 88.8264 0.286522 88.7084 0.276522 87.6234C0.268522 86.8304 0.271522 86.0364 0.276522 85.2434C0.283522 84.1954 0.411521 84.0594 1.44652 84.0554C3.62752 84.0494 5.80752 84.0594 7.98852 84.0514C9.81552 84.0454 10.8555 83.2903 11.3335 81.5353C11.5395 80.7783 11.6835 79.9814 11.7035 79.1984C12.2125 59.8874 12.2145 40.5744 11.9585 21.2604C11.9135 17.8644 11.8975 14.4634 11.7005 11.0734C11.4905 7.45937 10.1435 6.28136 6.53952 6.24136C4.75552 6.22136 2.97152 6.23936 1.18652 6.23536C0.216518 6.23336 0.027517 6.06135 0.00851703 5.12435C-0.00948297 4.27435 0.0175214 3.42436 0.000521426 2.57536C-0.0164786 1.77336 0.382522 1.44536 1.15152 1.47236C2.96252 1.53636 4.77452 1.64836 6.58552 1.64236C15.4185 1.61336 24.2525 1.56936 33.0845 1.49136C35.6335 1.46936 35.6335 1.40836 35.6335 3.95236C35.6335 6.23636 35.6335 6.22237 33.3595 6.24037C31.2945 6.25737 29.2205 6.20636 27.1665 6.37336C25.2295 6.53036 24.3545 7.41836 23.9825 9.33636C23.7725 10.3913 23.6577 11.4629 23.6395 12.5384C23.5395 21.4584 23.4725 30.3784 23.4005 39.2994C23.3885 40.7604 23.6255 40.9994 25.1295 41.0034C29.0375 41.0124 32.9455 41.0064 36.8545 41.0064H69.5635C72.3855 41.0064 72.5845 40.8344 72.5495 38.0544C72.4415 29.2474 72.3175 20.4414 72.1775 11.6354C72.1579 10.815 72.0608 9.9984 71.8875 9.19636C71.4455 7.07236 70.4805 6.28235 68.2865 6.24735C66.2475 6.21435 64.2085 6.24036 62.1695 6.23536C61.0715 6.23236 60.9625 6.11835 60.9565 5.00135C60.9515 4.15135 60.9805 3.30136 60.9485 2.45336C60.9195 1.70836 61.2555 1.43935 61.9705 1.46735C63.9225 1.54335 65.8765 1.65036 67.8285 1.64436C75.8695 1.61936 83.9095 1.55636 91.9495 1.50636C92.3175 1.50436 92.6855 1.48236 93.0535 1.47736C94.2275 1.46036 94.4545 1.67835 94.4605 2.83335C94.4635 3.62635 94.4465 4.41937 94.4645 5.21237C94.4815 5.93537 94.1355 6.24036 93.4335 6.23736C91.7059 6.22586 89.9781 6.22786 88.2505 6.24336C87.7135 6.24787 87.1778 6.29873 86.6495 6.39536C85.5895 6.59436 84.8005 7.18636 84.5775 8.26836C84.3455 9.39836 84.1205 10.5534 84.1065 11.7004C83.9685 22.8584 83.8725 34.0164 83.7595 45.6334ZM241.949 90.3074C234.674 90.2384 227.659 88.9714 221.075 85.7394C211.285 80.9344 204.827 73.2604 201.339 62.9714C198.748 55.3304 197.67 47.5133 198.473 39.4793C199.712 27.0793 204.892 16.6694 214.671 8.82935C220.546 4.11835 227.402 1.41736 234.884 0.449365C245.923 -0.980635 256.273 1.11236 265.916 6.69036C267.848 7.80836 268.204 7.63936 268.791 5.48336C268.976 4.80136 269.145 4.11436 269.35 3.43836C269.587 2.65336 270.254 2.36736 271.357 2.47436C272.154 2.55236 272.265 3.10836 272.343 3.72636C273.36 11.8084 274.376 19.8894 275.402 27.9694C275.545 29.0924 275.485 29.2213 274.399 29.5093C272.374 30.0463 272.378 30.0443 271.532 28.1123C268.837 21.9623 265.416 16.3124 260.325 11.8044C253.438 5.70436 245.423 3.33436 236.348 4.63336C226.263 6.07736 219.167 11.5854 214.92 20.7844C210.246 30.9094 209.337 41.4234 211.775 52.2754C213.329 59.1894 215.963 65.5874 220.52 71.0984C222.765 73.8124 225.217 76.3093 228.02 78.4573C231.988 81.5013 236.593 82.6954 241.454 83.1414C247.395 83.6854 253.231 83.1833 258.812 80.9573C265.695 78.2123 271.455 73.9483 275.805 67.8933C276.299 67.2053 276.628 67.1934 277.267 67.6984C279.32 69.3184 279.253 69.0314 277.763 71.0844C274.122 76.0974 269.862 80.4824 264.636 83.8704C257.737 88.3434 250.129 90.3334 241.949 90.3074ZM355.556 87.8623V88.9384C355.556 97.0364 355.552 105.133 355.562 113.231C355.564 114.049 355.583 114.879 355.717 115.683C355.957 117.116 356.645 117.67 358.105 117.69C359.832 117.712 361.559 117.693 363.286 117.7C364.406 117.705 364.693 117.982 364.727 119.098C364.745 119.693 364.748 120.287 364.725 120.882C364.687 121.842 364.367 122.131 363.396 122.096C362.152 122.051 360.908 121.999 359.665 121.94C353.041 121.625 346.421 121.741 339.8 122.08C337.585 122.194 337.582 122.149 337.582 119.913C337.582 117.775 337.66 117.699 339.848 117.698C341.179 117.698 342.51 117.708 343.84 117.695C345.272 117.68 345.859 117.327 346.084 115.907C346.376 114.071 346.556 112.202 346.592 110.344C346.698 104.881 346.742 99.4154 346.751 93.9514C346.772 80.8144 346.71 67.6763 346.792 54.5393C346.813 51.2903 345.594 48.9924 342.762 47.4804C341.665 46.8944 340.612 46.2243 339.509 45.6513C338.785 45.2763 338.649 44.7083 338.641 43.9703C338.634 43.2783 338.993 42.9683 339.542 42.6943C343.519 40.7213 347.482 38.7264 351.459 36.7544C352.064 36.4544 352.695 36.1843 353.34 35.9883C354.312 35.6933 354.672 35.8994 354.807 36.9004C354.972 38.1314 355.025 39.3783 355.131 40.6173C355.232 41.7873 355.34 42.9574 355.468 44.3764C355.853 44.0014 356.079 43.8184 356.263 43.5984C360.117 38.9714 365.136 36.7834 371.054 36.0664C381.776 34.7664 392.436 43.3353 393.751 54.1863C394.535 60.6573 394.532 67.0404 391.954 73.1374C388.828 80.5304 383.731 86.0074 375.973 88.6714C371.986 90.0404 367.868 90.1154 363.721 89.7444C360.979 89.4994 358.304 88.9373 355.556 87.8623ZM355.556 63.8304C355.556 64.4254 355.554 65.0194 355.556 65.6144C355.572 69.4934 355.56 73.3723 355.612 77.2503C355.652 80.2363 357.018 82.3663 359.74 83.7253C363.258 85.4813 366.975 86.0633 370.844 85.9833C372.74 85.9453 374.544 85.5044 376.21 84.5864C380.358 82.2994 382.624 78.6423 383.648 74.1433C384.881 68.7143 384.804 63.2394 383.95 57.7744C383.295 53.5784 381.912 49.6644 378.985 46.4384C375.79 42.9174 371.881 41.1814 367.101 41.7214C362.321 42.2634 358.728 44.7734 356.063 48.6834C355.755 49.1364 355.584 49.7734 355.579 50.3274C355.54 54.8274 355.556 59.3294 355.556 63.8304ZM135.577 41.9923C141.601 43.6923 146.159 47.2474 149.713 52.1664C152.763 56.3874 153.728 61.1494 153.162 66.2544C152.081 75.9964 146.398 82.4133 138.061 86.8023C132.477 89.7413 126.436 90.5683 120.196 90.2333C117.247 90.0763 114.333 89.7394 111.546 88.6854C109.13 87.7734 107.093 86.3274 105.595 84.2154C104.173 82.2104 103.95 80.0154 105.012 77.7884C105.679 76.3914 106.758 75.3934 108.429 75.3904C110.129 75.3854 111.426 76.1554 112.23 77.6574C112.589 78.3274 112.912 79.0344 113.121 79.7614C113.951 82.6574 116.044 84.2604 118.769 84.9684C124.207 86.3814 129.611 86.2624 134.534 83.2754C139.835 80.0584 142.73 75.2684 142.769 68.9564C142.796 64.6354 141.942 60.5144 139.55 56.8314C136.468 52.0864 132.064 49.1404 126.705 47.5254C126.11 47.3464 125.516 47.1274 124.906 47.0414C123.994 46.9134 123.56 46.2524 123.139 45.5904C122.784 45.0294 123.064 44.2294 123.747 43.8684C124.163 43.6484 124.644 43.5374 125.108 43.4244C130.713 42.0514 135.237 39.0963 138.267 34.1343C141.493 28.8493 141.117 20.3543 136.37 15.7723C133.475 12.9783 129.967 12.2064 126.113 12.5844C120.184 13.1674 116.232 16.5714 113.509 21.6194C112.747 23.0324 112.169 24.5454 111.527 26.0214C111.078 27.0534 110.891 27.1674 109.798 26.9294C109.688 26.9054 109.58 26.8674 109.47 26.8424C107.701 26.4344 107.662 26.4103 108.067 24.6603C109.775 17.2753 113.733 11.4314 120.268 7.53936C124.588 4.96636 129.403 4.54836 134.322 5.11236C137.468 5.47236 140.459 6.34836 142.892 8.44836C147.28 12.2374 149.617 16.9424 149.058 22.8924C148.42 29.6884 144.887 34.7803 139.745 38.9363C138.432 39.9943 137.025 40.9353 135.577 41.9923ZM503.524 81.7184C502.403 82.7174 501.417 83.7384 500.294 84.5724C495.504 88.1374 490.193 90.1854 484.122 89.9484C481.239 89.8354 478.454 87.8704 477.49 84.9414C475.669 79.3974 476.684 73.6604 481.721 69.3464C483.958 67.4304 486.529 66.0874 489.173 64.8394C493.031 63.0184 496.839 61.0894 500.697 59.2674C502.249 58.5354 502.907 57.5383 502.796 55.7253C502.605 52.5993 502.776 49.4673 502.219 46.3413C501.637 43.0733 499.688 41.3754 496.623 40.8124C493.233 40.1894 489.899 40.3494 486.861 42.2314C484.879 43.4604 484.482 44.4804 484.887 46.8034C485.301 49.1814 485.234 51.4964 483.757 53.5514C482.601 55.1614 479.507 56.1264 477.624 55.5104C476.323 55.0854 475.926 54.0183 475.773 52.8153C475.508 50.7373 476.058 48.8384 477.102 47.0544C478.367 44.8964 480.016 43.0783 482.052 41.6433C487.408 37.8693 493.329 35.7634 499.932 36.0374C501.737 36.1114 503.582 36.5314 505.299 37.1164C508.806 38.3094 510.767 40.9123 511.259 44.5693C511.443 45.9393 511.527 47.3324 511.533 48.7154C511.574 57.7184 511.566 66.7223 511.613 75.7253C511.624 77.6243 511.859 79.5094 512.698 81.2604C513.314 82.5474 514.301 83.1664 515.76 83.0554C517.237 82.9434 518.5 82.4684 519.469 81.2874C520.146 80.4624 520.364 80.4744 521.208 81.1504C522.497 82.1814 522.563 82.6174 521.732 84.0844C520.368 86.4954 518.58 88.4124 515.878 89.3424C510.81 91.0854 506.329 89.0714 504.334 84.1094C504.032 83.3524 503.809 82.5644 503.524 81.7184ZM502.615 61.6473C500.163 62.8733 497.803 63.9644 495.531 65.2184C493.901 66.1241 492.337 67.1433 490.851 68.2683C487.879 70.5073 486.281 73.4834 486.215 77.2754C486.133 82.0724 489.586 85.1044 494.11 83.9804C497.161 83.2214 499.637 81.4454 501.652 79.0464C502.346 78.2214 502.63 77.2344 502.625 76.1354C502.603 71.5794 502.615 67.0244 502.615 62.4674V61.6473ZM316.679 81.5693C316.155 82.1283 315.783 82.5884 315.347 82.9784C310.19 87.6054 304.242 90.1834 297.212 89.9394C293.807 89.8204 290.994 87.1903 290.203 83.3973C288.863 76.9693 291.109 71.5024 297.027 67.7954C300.029 65.9144 303.365 64.5694 306.537 62.9564C309.308 61.5474 312.059 60.0984 314.822 58.6724C315.623 58.2594 315.981 57.6994 315.923 56.7214C315.735 53.5904 315.663 50.4524 315.529 47.3184C315.512 46.9264 315.385 46.5404 315.329 46.1484C314.89 43.0974 312.95 41.4864 310.099 40.8794C306.866 40.1914 303.671 40.3234 300.664 41.8614C298.154 43.1434 297.607 44.3433 298.104 47.0913C298.438 48.9403 298.321 50.7544 297.568 52.4974C296.544 54.8684 293.218 56.3344 290.763 55.5014C289.701 55.1404 289.24 54.2984 289.026 53.2784C288.618 51.3334 289.03 49.5084 289.899 47.7704C290.99 45.5793 292.574 43.6705 294.527 42.1934C300.024 38.0174 306.21 35.7794 313.156 36.0344C314.88 36.0974 316.646 36.4784 318.288 37.0284C322.155 38.3224 324.136 41.2014 324.537 45.2024C324.647 46.3003 324.704 47.4029 324.707 48.5064C324.721 56.8614 324.667 65.2153 324.747 73.5693C324.768 75.7573 324.963 77.9974 325.479 80.1164C326.254 83.2974 329.54 84.1084 332.039 81.9174C332.145 81.8234 332.236 81.7124 332.347 81.6244C332.86 81.2124 333.132 80.2153 334.102 80.9193C335.54 81.9643 335.753 82.4814 335.121 83.6894C333.557 86.6724 331.378 88.9674 327.932 89.6424C322.66 90.6754 318.929 88.4444 317.225 83.3264C317.056 82.8224 316.909 82.3113 316.679 81.5693ZM315.795 61.6484C313.37 62.8594 311.035 63.8924 308.837 65.1654C306.864 66.3074 304.943 67.5894 303.178 69.0284C300.377 71.3114 299.27 74.4244 299.407 77.9974C299.568 82.2004 302.686 84.7884 306.838 84.0534C309.943 83.5024 312.367 81.6954 314.498 79.4684C315.44 78.4834 315.818 77.2844 315.809 75.9044C315.774 71.4594 315.796 67.0113 315.796 62.5653L315.795 61.6484ZM543.347 41.2123C543.347 54.1253 543.341 67.0384 543.364 79.9514C543.365 80.7854 543.495 81.6504 543.74 82.4484C544.143 83.7614 545.032 84.3734 546.403 84.3964C548.187 84.4274 549.97 84.4034 551.755 84.4154C553.093 84.4254 553.396 84.7364 553.398 86.0764C553.399 86.6704 553.41 87.2664 553.377 87.8594C553.341 88.5294 553.022 88.8604 552.284 88.8254C550.191 88.7294 548.095 88.6374 546 88.6294C540.112 88.6147 534.224 88.621 528.336 88.6484C527.318 88.6524 526.3 88.7424 525.284 88.8184C524.516 88.8764 524.18 88.5074 524.172 87.7804C524.164 87.0444 524.167 86.3074 524.164 85.5714C524.162 84.9664 524.475 84.6103 525.055 84.5183C525.474 84.4526 525.897 84.4191 526.32 84.4183C528.075 84.4063 529.833 84.4294 531.588 84.4054C533.167 84.3844 534.055 83.5723 534.226 82.0003C534.306 81.2703 534.342 80.5314 534.341 79.7964C534.305 60.4564 534.267 41.1154 534.205 21.7754C534.201 20.3364 534.064 18.8924 533.911 17.4584C533.668 15.1714 532.479 13.4604 530.424 12.4724C528.927 11.7534 527.333 11.2354 525.778 10.6364C525.248 10.4314 524.734 10.3024 524.719 9.52636C524.703 8.76036 525.064 8.43636 525.685 8.12936C530.704 5.65436 535.708 3.14936 540.718 0.655358C541.499 0.266358 542.341 -0.306642 543.182 0.198358C543.954 0.663358 543.734 1.61536 543.722 2.39436C543.534 15.3334 543.336 28.2733 543.141 41.2123H543.347ZM452.694 37.3214H453.709L469.168 37.3224C469.451 37.3224 469.738 37.3103 470.016 37.3503C470.521 37.4233 470.784 37.6954 470.627 38.2354C470.189 39.7564 469.744 41.2754 469.308 42.7964C469.081 43.5884 468.484 43.6894 467.78 43.6884C463.051 43.6774 458.322 43.6834 453.593 43.6834H452.5C452.454 44.2674 452.38 44.7924 452.375 45.3184C452.289 55.1134 452.171 64.9094 452.172 74.7044C452.173 76.3414 452.517 78.0374 453.025 79.6014C453.972 82.5124 456.251 83.9674 459.298 83.9074C461.832 83.8574 464.327 83.6283 466.594 82.3243C467.183 81.9853 467.691 82.1583 468.053 82.7203C468.237 83.0043 468.363 83.3274 468.558 83.6034C468.92 84.1164 468.816 84.5654 468.409 84.9714C468.109 85.2704 467.797 85.5654 467.455 85.8134C463.236 88.8624 458.554 90.3344 453.335 89.8164C448.951 89.3804 443.997 85.0824 443.099 80.9894C442.961 80.3604 442.922 79.6974 442.932 79.0514C443.084 68.9164 443.257 58.7813 443.415 48.6473C443.439 47.0363 443.419 45.4253 443.419 43.7203C443.151 43.7093 442.852 43.6844 442.552 43.6844C440.571 43.6814 438.588 43.6864 436.607 43.6794C436.211 43.6784 435.809 43.6743 435.422 43.6083C434.266 43.4093 433.858 42.2754 434.616 41.3704C434.831 41.1134 435.086 40.8653 435.371 40.6943C438.996 38.5293 441.806 35.4434 444.679 32.4374C445.753 31.3134 446.809 30.1533 447.725 28.9013C448.704 27.5623 449.535 26.1104 450.38 24.6794C450.731 24.0854 451.097 23.6044 451.834 23.5314C452.569 23.4574 453.076 23.7424 453.188 24.4844C453.276 25.0654 453.287 25.6654 453.258 26.2534C453.083 29.8994 452.888 33.5444 452.694 37.3214ZM411.211 66.7553C411.211 62.1953 411.232 57.6364 411.195 53.0774C411.179 51.976 411.062 50.8784 410.846 49.7983C410.541 48.2493 409.603 47.1204 408.109 46.5864C406.89 46.1504 405.624 45.8394 404.365 45.5244C403.809 45.3854 403.294 45.2764 403.261 44.5794C403.226 43.8434 403.127 43.0903 404.053 42.7373C405.374 42.2343 406.702 41.7404 407.985 41.1494C411.013 39.7534 414.013 38.2944 417.034 36.8794C417.722 36.5574 418.43 36.2564 419.158 36.0474C419.976 35.8134 420.346 36.1494 420.331 36.9804C420.232 42.5274 420.076 48.0744 420.048 53.6224C420.005 62.0334 420.037 70.4443 420.074 78.8543C420.08 80.0913 420.181 81.3483 420.417 82.5613C420.707 84.0493 421.276 84.4124 422.782 84.4134C424.368 84.4144 425.953 84.4023 427.539 84.4183C428.643 84.4293 428.941 84.7394 428.961 85.8434C428.971 86.4384 428.982 87.0344 428.947 87.6274C428.894 88.5504 428.599 88.8344 427.667 88.8124C425.6 88.7644 423.534 88.6224 421.469 88.6284C415.724 88.6494 409.979 88.6973 404.234 88.7943C401.91 88.8333 401.911 88.9034 401.911 86.5894C401.911 84.4434 401.94 84.4134 404.1 84.4134C405.713 84.4134 407.328 84.4224 408.942 84.4094C410.221 84.3994 410.884 83.8304 411.02 82.5514C411.122 81.5964 411.16 80.6293 411.164 79.6683C411.179 75.3633 411.17 71.0593 411.17 66.7553H411.211ZM419.775 15.0164C419.713 19.2104 416.647 22.2054 412.461 22.1624C408.947 22.1264 405.435 18.6663 405.462 15.2683C405.493 11.4113 409.015 8.36737 413.354 8.44737C417.074 8.51637 419.829 11.3344 419.775 15.0164Z" fill="black"/>
</svg>
